<?xml version="1.0" encoding="UTF-8"?>
<svg width="24" height="24" viewBox="0 0 24 24" fill="none" xmlns="http://www.w3.org/2000/svg">
    <path d="M21.5 11.5C21.5 6.25329 17.2467 2 12 2C6.75329 2 2.5 6.25329 2.5 11.5C2.5 16.7467 6.75329 21 12 21C17.2467 21 21.5 16.7467 21.5 11.5Z" stroke="#0078D4" stroke-width="1.5"/>
    <path d="M12 2C8.5 2 4.5 4.5 3.5 8.5C2.5 12.5 4.5 16.5 8.5 18.5C12.5 20.5 17 19.5 19.5 16.5" stroke="#0078D4" stroke-width="1.5"/>
    <path d="M19.5 7.5C18.5 5.5 16.5 4 14 3.5" stroke="#0078D4" stroke-width="1.5"/>
    <path d="M12 8C10.3431 8 9 9.34315 9 11C9 12.6569 10.3431 14 12 14C13.6569 14 15 12.6569 15 11C15 9.34315 13.6569 8 12 8Z" fill="#0078D4"/>
</svg>
